
<svg width="100%" height="100%" viewBox="0 0 118 245" version="1.1" xmlns="http://www.w3.org/2000/svg" xmlns:xlink="http://www.w3.org/1999/xlink">
    <!-- Generator: Sketch 43.2 (39069) - http://www.bohemiancoding.com/sketch -->
    <desc>Created with Sketch.</desc>
    <defs>
        <rect id="path-1" x="4" y="52" width="60" height="34" rx="6"></rect>
        <rect id="path-2" x="4" y="102" width="60" height="34" rx="6"></rect>
        <rect id="path-3" x="3" y="153" width="64" height="36" rx="6"></rect>
        <rect id="path-4" x="79" y="151" width="38" height="15"></rect>
    </defs>
    <g id="Page-1" stroke="none" stroke-width="1" fill="none" fill-rule="evenodd">
        <g id="Group" transform="translate(1.000000, 1.000000)">
            <g id="Rectangle-2">

            </g>
            <g id="Rectangle-2">
                <use fill="#FFFFFF" fill-rule="evenodd" xlink:href="#path-2"></use>
                <rect stroke="#1D1D1D" stroke-width="1" x="4.5" y="102.5" width="59" height="33" rx="6"></rect>
            </g>
            <g id="Rectangle-2">
                <use fill="#FFFFFF" fill-rule="evenodd" xlink:href="#path-3"></use>
                <rect stroke="#1D1D1D" stroke-width="1" x="3.5" y="153.5" width="63" height="35" rx="6"></rect>
            </g>
            <text id="Customer-orders-Essp" font-family="TitilliumWeb-Regular, Titillium Web" font-size="10" font-weight="normal" line-spacing="9" letter-spacing="0.200000003" fill-opacity="0.9" fill="#000000">
                <tspan x="11.07" y="14">Customer</tspan>
                <tspan x="18.115" y="23">orders </tspan>
                <tspan x="10" y="32">Esspress</tspan>
                <tspan x="49.41" y="32">o</tspan>
            </text>
            <text id="Brew-Milk" font-family="TitilliumWeb-Regular, Titillium Web" font-size="10" font-weight="normal" line-spacing="10" letter-spacing="0.200000003" fill-opacity="0.9" fill="#000000">
                <tspan x="22" y="70">Brew</tspan>
                <tspan x="24.225" y="80">Milk</tspan>
            </text>
            <text id="Brew-Espresso" font-family="TitilliumWeb-Regular, Titillium Web" font-size="10" font-weight="normal" line-spacing="10" letter-spacing="0.200000003" fill-opacity="0.9" fill="#000000">
                <tspan x="21.55" y="119">Brew</tspan>
                <tspan x="13" y="129">Espresso</tspan>
            </text>
            <text id="Pour-Milk-into-Esspr" font-family="TitilliumWeb-Regular, Titillium Web" font-size="10" font-weight="normal" line-spacing="10" letter-spacing="0.200000003" fill-opacity="0.9" fill="#000000">
                <tspan x="12.63" y="166">Pour Milk</tspan>
                <tspan x="24.785" y="176">into </tspan>
                <tspan x="11" y="186">Esspresso</tspan>
            </text>
            <polyline id="Path-5" stroke="#080808" points="32 36 32 49.0384048 36.0192483 45.0191565"></polyline>
            <polyline id="Path-5" stroke="#080808" points="32 191 32 204.038405 36.0192483 200.019157"></polyline>
            <polyline id="Path-5" stroke="#080808" points="33 87 33 100.038405 37.0192483 96.0191565"></polyline>
            <polyline id="Path-5" stroke="#080808" points="33 137 33 150.038405 37.0192483 146.019157"></polyline>
            <polyline id="Path-6" stroke-opacity="0.9" stroke="#000000" points="67 171 74 171 74 159 81 159"></polyline>
            <g id="Rectangle-3">
                <use fill="#FFFFFF" fill-rule="evenodd" xlink:href="#path-4"></use>
                <rect stroke-opacity="0.9" stroke="#000000" stroke-width="1" x="79.5" y="151.5" width="37" height="14"></rect>
            </g>
            <circle id="Oval-2" fill="#19AC13" cx="82.5" cy="154.5" r="1.5"></circle>
            <text id="10-seconds" font-family="TitilliumWeb-Regular, Titillium Web" font-size="7" font-weight="normal" letter-spacing="-0.200000003" fill-opacity="0.9" fill="#000000">
                <tspan x="82.1035" y="161">10 second</tspan>
                <tspan x="110.6415" y="161">s</tspan>
            </text>
            <polygon id="Path-7" stroke="#000000" points="5 0 60.0363516 0 65 17 60.0363516 35 5 35 0 17"></polygon>
            <text id="Esspresso-Complete" font-family="TitilliumWeb-Regular, Titillium Web" font-size="10" font-weight="normal" line-spacing="10" letter-spacing="0.200000003" fill-opacity="0.9" fill="#000000">
                <tspan x="10" y="225.038405">Esspresso</tspan>
                <tspan x="11.575" y="">Complete</tspan>
            </text>
            <polygon id="Path-7" stroke="#000000" points="5 208.038405 60.0363516 208.038405 65 225.038405 60.0363516 243.038405 5 243.038405 0 225.038405"></polygon>
        </g>
    </g>
</svg>
