
<svg width="18px" height="18px" viewBox="0 0 18 18" version="1.1" xmlns="http://www.w3.org/2000/svg" xmlns:xlink="http://www.w3.org/1999/xlink">
    <!-- Generator: Sketch 43.2 (39069) - http://www.bohemiancoding.com/sketch -->
    <desc>Created with Sketch.</desc>
    <defs></defs>
    <g id="Page-1" stroke="none" stroke-width="1" fill="none" fill-rule="evenodd">
        <g id="Group-147" transform="translate(0.000000, 1.000000)" stroke="#4A4A4A">
            <polygon id="Stroke-2" stroke-linejoin="round" points="13.8222496 0 15.423828 4.02829268 13.8222496 8.05940135 3.68084673 8.05940135 2.07926829 4.02829268 3.68084673 0"></polygon>
            <path d="M11.4329744,11.3467638 C11.3969011,11.2828421 11.3550715,11.221537 11.2994265,11.1677082 L9.22406205,9.14613681 C9.16880086,9.09193417 9.10586451,9.05118874 9.04024186,9.01605048 L8.95496225,8.06553148 L8.35800502,8.06553148 L8.27272541,9.01605048 C8.20710276,9.05118874 8.14416641,9.09193417 8.08890523,9.14613681 L6.01354076,11.1677082 C5.95789582,11.221537 5.91568242,11.2828421 5.8799929,11.3467638 L2.51635209,11.3467638 C1.45833067,11.3467638 0.597560976,12.1852225 0.597560976,13.2158202 L0.597560976,15.6248262 L1.19451821,15.6248262 L1.36507742,13.2158202 C1.36507742,12.5975363 1.88161599,12.0943863 2.51635209,12.0943863 L5.8799929,12.0943863 C5.91568242,12.1583081 5.95789582,12.2196131 6.01354076,12.2734419 L8.08890523,14.2950133 C8.40243569,14.6004171 8.91053158,14.6004171 9.22406205,14.2950133 L11.2994265,12.2734419 C11.3550715,12.2196131 11.3969011,12.1583081 11.4329744,12.0943863 L14.7966152,12.0943863 C15.4313513,12.0943863 15.9478899,12.5975363 15.9478899,13.2158202 L16.1184491,15.6248262 L16.7154063,15.6248262 L16.7154063,13.2158202 C16.7154063,12.1852225 15.8546366,11.3467638 14.7966152,11.3467638 L11.4329744,11.3467638 Z" id="Stroke-3" stroke-width="0.8"></path>
        </g>
    </g>
</svg>
