
<svg width="17px" height="17px" viewBox="0 0 17 17" version="1.1" xmlns="http://www.w3.org/2000/svg" xmlns:xlink="http://www.w3.org/1999/xlink">
    <!-- Generator: Sketch 43.2 (39069) - http://www.bohemiancoding.com/sketch -->
    <desc>Created with Sketch.</desc>
    <defs></defs>
    <g id="Page-1" stroke="none" stroke-width="1" fill="none" fill-rule="evenodd">
        <g id="book" fill="#464646">
            <path d="M16.592,1.152 C16.539,1.142 15.271,0.908 13.611,0.908 C11.506,0.908 9.783,1.274 8.486,1.996 C6.968,1.231 5.222,0.844 3.29,0.844 C1.609,0.844 0.424,1.146 0.375,1.159 L0,1.257 L0.001,15.163 L0.625,15.002 C0.636,15 1.745,14.719 3.29,14.719 C4.737,14.719 6.061,14.959 7.25,15.422 L7.25,16.25 L9.75,16.25 L9.75,15.394 C11.031,14.906 12.497,14.783 13.61,14.783 C15.172,14.783 16.396,15.008 16.408,15.01 L17,15.12 L17,1.229 L16.592,1.152 L16.592,1.152 Z M1,13.907 L1,2.049 C1.451,1.965 2.277,1.844 3.29,1.844 C5.051,1.844 6.629,2.204 8,2.888 L8,14.664 C6.597,14.047 5.023,13.719 3.29,13.719 C2.321,13.719 1.517,13.82 1,13.907 L1,13.907 Z M16,13.938 C15.464,13.868 14.607,13.784 13.61,13.784 C11.762,13.784 10.229,14.082 9,14.639 L9,2.866 C10.422,2.086 12.271,1.908 13.61,1.908 C14.633,1.908 15.512,2.005 16,2.072 L16,13.938 L16,13.938 Z" id="Shape"></path>
        </g>
    </g>
</svg>
